<?xml version="1.0" encoding="utf-8"?>
<!-- Generator: Adobe Illustrator 24.1.0, SVG Export Plug-In . SVG Version: 6.00 Build 0)  -->
<svg version="1.1" id="Layer_1" xmlns="http://www.w3.org/2000/svg" xmlns:xlink="http://www.w3.org/1999/xlink" x="0px" y="0px"
	 viewBox="0 0 266.1 98.7" style="enable-background:new 0 0 266.1 98.7;" xml:space="preserve">
<style type="text/css">
	.st0{fill:#DEB649;}
	.st1{fill:#FFFFFF;}
</style>
<g>
	<path class="st0" d="M2.5,5.1L0.1,4.6V2.6h10.1v2.1L7.4,5.1v8.4h10.1V5.1L15,4.6V2.6h10v2.1l-2.5,0.4V25l2.5,0.3v2h-10v-2l2.6-0.3
		v-9H7.4v9l2.8,0.3v2H0v-2L2.5,25V5.1z"/>
	<path class="st0" d="M29.7,25.1c-1.4-1.7-2.1-4.1-2.1-7c0-2,0.4-3.7,1.1-5.2c0.7-1.5,1.8-2.6,3.1-3.4c1.4-0.8,2.9-1.2,4.7-1.2
		c2.2,0,3.9,0.6,5.1,1.7c1.2,1.2,1.8,2.8,1.9,5c0,1.5-0.1,2.6-0.3,3.3H32.5c0.1,2,0.6,3.6,1.4,4.7s2.1,1.7,3.7,1.7
		c0.9,0,1.8-0.1,2.7-0.4c0.9-0.3,1.6-0.6,2.2-1l0.8,1.8c-0.6,0.6-1.6,1.2-2.9,1.8c-1.3,0.5-2.7,0.8-4.1,0.8
		C33.4,27.7,31.2,26.8,29.7,25.1z M38.9,16.3c0-0.6,0.1-1.1,0.1-1.4c0-3-1-4.4-3-4.4c-1.1,0-1.9,0.4-2.5,1.3c-0.6,0.9-0.9,2.4-1,4.6
		H38.9z"/>
	<path class="st0" d="M48.9,17.6c2-1,4.7-1.5,7.9-1.6v-0.8c0-0.9-0.1-1.6-0.3-2.1c-0.2-0.5-0.5-0.9-1-1.1c-0.5-0.3-1.2-0.4-2.2-0.4
		c-1.1,0-2.1,0.1-2.9,0.4c-0.9,0.3-1.8,0.6-2.7,1.1l-1-2.1c0.3-0.3,0.9-0.6,1.7-1s1.7-0.7,2.8-1s2.2-0.4,3.4-0.4c1.7,0,3,0.2,4,0.7
		c1,0.4,1.7,1.2,2.1,2.1c0.4,1,0.6,2.3,0.6,3.9v10.2H63v1.9c-0.4,0.1-1.1,0.2-1.9,0.3s-1.5,0.2-2.2,0.2c-0.8,0-1.3-0.1-1.5-0.3
		S57,26.7,57,26v-0.9c-0.6,0.7-1.4,1.3-2.3,1.8c-1,0.5-2,0.8-3.2,0.8c-1,0-2-0.2-2.8-0.6c-0.9-0.4-1.5-1.1-2-1.9
		c-0.5-0.8-0.8-1.8-0.8-3C45.8,20.1,46.9,18.6,48.9,17.6z M55.2,24.5c0.6-0.3,1.1-0.6,1.6-1V18c-2,0-3.5,0.3-4.5,1
		c-1,0.7-1.5,1.5-1.5,2.6c0,1.1,0.2,1.9,0.8,2.4c0.5,0.6,1.2,0.8,2,0.8C54.1,24.9,54.6,24.8,55.2,24.5z"/>
	<path class="st0" d="M67,3l-2.5-0.4V0.7L70.7,0h0.1l0.9,0.6v24.4l2.4,0.3v2h-9.4v-2L67,25V3z"/>
	<path class="st0" d="M78.9,26.7c-0.7-0.6-1-1.7-1-3.1V11.4h-2.2V9.6c0.2-0.1,0.5-0.2,1-0.3c0.5-0.2,0.8-0.3,1.1-0.4
		c0.4-0.3,0.7-0.8,1-1.5c0.2-0.5,0.6-1.6,1.1-3.5h2.7l0.1,4.9h5.1v2.6h-5.1v9.4c0,1.2,0,2.1,0.1,2.6c0.1,0.5,0.2,0.8,0.4,1
		c0.2,0.1,0.6,0.2,1.2,0.2s1.1-0.1,1.7-0.2c0.6-0.1,1.1-0.3,1.5-0.4l0.6,1.9c-0.6,0.5-1.5,0.9-2.7,1.3c-1.2,0.4-2.4,0.6-3.5,0.6
		C80.6,27.6,79.6,27.3,78.9,26.7z"/>
	<path class="st0" d="M91.6,3L89,2.5V0.7L95.2,0h0.1l0.9,0.6l0,7.4L96,11c0.7-0.6,1.6-1.2,2.8-1.7c1.2-0.5,2.4-0.8,3.7-0.8
		c1.4,0,2.5,0.3,3.3,0.8c0.8,0.5,1.3,1.3,1.6,2.4c0.3,1.1,0.5,2.5,0.5,4.3V25l2.1,0.3v2h-8.8v-2l1.9-0.3v-9.2c0-1.2-0.1-2.1-0.2-2.7
		c-0.2-0.6-0.4-1.1-0.8-1.4c-0.4-0.3-1-0.5-1.8-0.5c-0.7,0-1.4,0.2-2.1,0.5c-0.7,0.3-1.4,0.7-1.9,1.1V25l2,0.3v2h-8.6v-2l1.9-0.3V3z
		"/>
	<path class="st0" d="M113,13.1c0.8-1.5,1.9-2.6,3.3-3.5s3.1-1.2,5-1.2c0.9,0,1.7,0.1,2.3,0.2c0.6,0.1,1.4,0.3,2.2,0.5l1,0.3
		l-0.2,5.7h-2.9l-0.8-3.7c-0.1-0.6-0.8-0.9-2-0.9c-1.2,0-2.2,0.5-2.9,1.6c-0.7,1.1-1.1,2.8-1.1,5.1c0,2.4,0.4,4.3,1.3,5.6
		c0.8,1.3,2,1.9,3.4,1.9c1.7,0,3.2-0.5,4.7-1.4l0.8,1.7c-0.6,0.6-1.5,1.2-2.6,1.7c-1.2,0.5-2.5,0.8-3.8,0.8c-2.8,0-5-0.9-6.4-2.6
		c-1.4-1.8-2.1-4.1-2.1-6.9C111.9,16.2,112.3,14.5,113,13.1z"/>
	<path class="st0" d="M132.3,17.6c2-1,4.7-1.5,7.9-1.6v-0.8c0-0.9-0.1-1.6-0.3-2.1c-0.2-0.5-0.5-0.9-1-1.1c-0.5-0.3-1.2-0.4-2.2-0.4
		c-1.1,0-2.1,0.1-2.9,0.4c-0.9,0.3-1.8,0.6-2.7,1.1l-1-2.1c0.3-0.3,0.9-0.6,1.7-1s1.7-0.7,2.8-1s2.2-0.4,3.4-0.4c1.7,0,3,0.2,4,0.7
		c1,0.4,1.7,1.2,2.1,2.1c0.4,1,0.6,2.3,0.6,3.9v10.2h1.8v1.9c-0.4,0.1-1.1,0.2-1.9,0.3s-1.5,0.2-2.2,0.2c-0.8,0-1.3-0.1-1.5-0.3
		s-0.4-0.7-0.4-1.4v-0.9c-0.6,0.7-1.4,1.3-2.3,1.8c-1,0.5-2,0.8-3.2,0.8c-1,0-2-0.2-2.8-0.6c-0.9-0.4-1.5-1.1-2-1.9
		c-0.5-0.8-0.8-1.8-0.8-3C129.2,20.1,130.3,18.6,132.3,17.6z M138.6,24.5c0.6-0.3,1.1-0.6,1.6-1V18c-2,0-3.5,0.3-4.5,1
		c-1,0.7-1.5,1.5-1.5,2.6c0,1.1,0.2,1.9,0.8,2.4c0.5,0.6,1.2,0.8,2,0.8C137.5,24.9,138,24.8,138.6,24.5z"/>
	<path class="st0" d="M148.5,25.4l2.2-0.3V12l-2.1-0.6V9.1l5.2-0.7h0.1l0.8,0.7v0.7l-0.1,2.7h0.1c0.2-0.4,0.5-1,1.1-1.6
		s1.3-1.2,2.2-1.7c0.9-0.5,1.8-0.7,2.8-0.7c0.5,0,0.9,0.1,1.3,0.2v5c-0.7-0.5-1.5-0.7-2.4-0.7c-1.6,0-3,0.4-4.2,1.3v10.9l3.9,0.3v2
		h-10.8V25.4z"/>
	<path class="st0" d="M166,25.1c-1.4-1.7-2.1-4.1-2.1-7c0-2,0.4-3.7,1.1-5.2c0.7-1.5,1.8-2.6,3.1-3.4c1.4-0.8,2.9-1.2,4.7-1.2
		c2.2,0,3.9,0.6,5.1,1.7c1.2,1.2,1.8,2.8,1.9,5c0,1.5-0.1,2.6-0.3,3.3h-10.8c0.1,2,0.6,3.6,1.4,4.7c0.9,1.1,2.1,1.7,3.7,1.7
		c0.9,0,1.8-0.1,2.7-0.4c0.9-0.3,1.7-0.6,2.2-1l0.8,1.8c-0.6,0.6-1.6,1.2-2.9,1.8c-1.3,0.5-2.7,0.8-4.1,0.8
		C169.6,27.7,167.4,26.8,166,25.1z M175.2,16.3c0-0.6,0.1-1.1,0.1-1.4c0-3-1-4.4-3-4.4c-1.1,0-1.9,0.4-2.5,1.3
		c-0.6,0.9-0.9,2.4-1,4.6H175.2z"/>
</g>
<g>
	<path class="st1" d="M1.6,94.7L7,94.1V53.2l-5.1-0.9v-3.2h8.6c1.2,0,2.9-0.1,5-0.3c2.2-0.2,3.9-0.3,5.1-0.3c6.4,0,11,1,13.8,3.1
		c2.7,2.1,4.1,5.4,4.1,9.8c0,3.1-0.9,6-2.6,8.5c-1.7,2.6-4.1,4.3-7.1,5.3c1.4,0.7,2.7,2,3.9,3.8c1.2,1.8,2.7,4.4,4.4,7.6
		c1.4,2.5,2.4,4.3,3.1,5.4c0.7,1.1,1.4,1.8,2.1,1.9l2.6,0.7v3.2h-9.1c-0.7,0-1.5-0.8-2.4-2.3c-0.9-1.5-2-3.8-3.5-7
		c-1.6-3.5-2.9-6.2-4.1-8.3c-1.2-2-2.3-3.3-3.5-3.9c-4.7,0-7.5,0-8.4-0.1v17.6l6.5,0.7v3.2h-19V94.7z M28.5,70.2
		c1.6-1.8,2.4-4.6,2.4-8.2c0-3.2-0.8-5.6-2.5-7.3C26.9,53,24,52.1,20,52.1c-1.4,0-2.8,0.1-4.2,0.3c-0.9,0.1-1.4,0.1-1.7,0.1v20.4
		c0.7,0,2,0.1,4.1,0.1h3.7C24.7,73,26.9,72,28.5,70.2z"/>
	<path class="st1" d="M50.2,69.3c1.6-2.9,3.8-5.1,6.4-6.6c2.7-1.5,5.5-2.3,8.5-2.3c5.5,0,9.7,1.8,12.5,5.3c2.8,3.5,4.2,8.1,4.2,13.8
		c0,4-0.8,7.4-2.4,10.3c-1.6,2.9-3.8,5.1-6.4,6.6c-2.7,1.5-5.5,2.2-8.5,2.2c-5.5,0-9.7-1.8-12.5-5.3c-2.8-3.5-4.2-8.1-4.2-13.8
		C47.8,75.7,48.6,72.2,50.2,69.3z M71.8,91.2c1.6-2.5,2.4-6.2,2.4-11.1c0-4.9-0.7-8.7-2.2-11.6c-1.5-2.8-3.9-4.3-7.2-4.3
		c-3,0-5.4,1.2-7,3.7c-1.6,2.5-2.5,6.2-2.5,11.1c0,4.9,0.8,8.7,2.3,11.6c1.5,2.8,3.9,4.3,7.2,4.3C67.9,94.9,70.2,93.7,71.8,91.2z"/>
	<path class="st1" d="M92.6,48.9l-5.3-0.7v-2.8l10.6-1.2H98l1.4,1v49.1l5.6,0.5v3.2H87.3v-3.2l5.3-0.6V48.9z"/>
	<path class="st1" d="M114.5,48.9l-5.3-0.7v-2.8l10.6-1.2h0.1l1.4,1v49.1l5.6,0.5v3.2h-17.8v-3.2l5.3-0.6V48.9z"/>
	<path class="st1" d="M156.7,95.5c-3.4-2.1-6-5-7.7-8.8c-1.8-3.8-2.6-8.2-2.6-13.3c0-4.9,1-9.2,3.1-13c2.1-3.8,4.9-6.7,8.5-8.8
		c3.6-2.1,7.6-3.1,12.1-3.1c3.4,0,7.4,0.5,12.2,1.6l2.2,0.4l-0.7,11.8h-4.4l-1.6-8.3c-0.6-0.5-1.7-1-3.2-1.3
		c-1.5-0.4-3.4-0.6-5.6-0.6c-2.8,0-5.3,0.8-7.5,2.4c-2.2,1.6-3.9,4-5.2,7.1c-1.2,3.1-1.9,6.8-1.9,11.2c0,4.1,0.5,7.9,1.6,11.2
		c1.1,3.4,2.8,6.1,5,8.1c2.2,2,5,3,8.3,3c2.3,0,4.1-0.2,5.4-0.6c1.2-0.4,2.3-1,3.2-1.7l2.8-6.4l4.1,0.5l-1.6,9.3
		c-0.9,0-2.3,0.4-4.1,0.9c-1.6,0.5-3.1,0.9-4.6,1.2c-1.5,0.3-3.3,0.4-5.5,0.4C164.2,98.7,160.1,97.6,156.7,95.5z"/>
	<path class="st1" d="M196.3,79c4.1-1.9,9.3-3,15.6-3.1V74c0-2.1-0.2-3.7-0.7-4.9c-0.4-1.2-1.2-2-2.3-2.6c-1.1-0.5-2.6-0.8-4.6-0.8
		c-2.2,0-4.2,0.3-6,1c-1.8,0.6-3.5,1.4-5.3,2.3l-1.6-3.4c0.6-0.5,1.6-1.1,3.2-1.9c1.5-0.8,3.3-1.5,5.3-2.1c2-0.6,4-0.9,6-0.9
		c3.1,0,5.6,0.4,7.4,1.3c1.8,0.9,3.1,2.2,3.9,4.1c0.8,1.9,1.2,4.4,1.2,7.6v21.1h3.9v2.9c-0.9,0.2-2,0.4-3.3,0.7
		c-1.3,0.2-2.5,0.3-3.5,0.3c-1.2,0-2.1-0.2-2.5-0.6c-0.4-0.4-0.7-1.2-0.7-2.5v-2.2c-1.3,1.3-2.9,2.5-4.8,3.6
		c-1.9,1.1-4.1,1.6-6.5,1.6c-3.2,0-5.8-0.9-7.9-2.7c-2.1-1.8-3.1-4.4-3.1-7.9C190.1,84,192.1,80.9,196.3,79z M207.8,93.1
		c1.5-0.7,2.8-1.5,4.1-2.5V79.3c-4.8,0-8.4,0.7-10.8,2.2c-2.4,1.5-3.6,3.4-3.6,5.8c0,2.4,0.6,4.1,1.7,5.2c1.2,1.1,2.7,1.7,4.7,1.7
		C205,94.2,206.3,93.8,207.8,93.1z"/>
	<path class="st1" d="M231.8,48.9l-5.3-0.7v-2.8l10.6-1.2h0.1l1.4,1v49.1l5.6,0.5v3.2h-17.8v-3.2l5.3-0.6V48.9z"/>
	<path class="st1" d="M253.7,48.9l-5.3-0.7v-2.8l10.6-1.2h0.1l1.4,1v49.1l5.6,0.5v3.2h-17.8v-3.2l5.3-0.6V48.9z"/>
</g>
</svg>
